<svg width="20" height="20" viewBox="0 0 20 20" fill="currentColor" xmlns="http://www.w3.org/2000/svg" class="icon"><path d="M12.6687 5.83304C12.6687 5.22006 12.6649 4.91019 12.6394 4.70413L12.6062 4.52542C12.4471 3.93179 12.0022 3.45922 11.4255 3.26272L11.3083 3.22757C11.0963 3.17075 10.8175 3.16507 9.99974 3.16507H8.0554C7.04558 3.16507 6.62456 3.17475 6.32982 3.26175L6.2097 3.30374C5.95005 3.41089 5.71908 3.57635 5.53392 3.78616L5.45677 3.87796C5.30475 4.0748 5.20336 4.33135 5.03392 4.91702L4.83763 5.6221L4.45677 7.01761C4.24829 7.78204 4.10326 8.31846 4.02318 8.73929C3.94374 9.15672 3.94298 9.39229 3.98119 9.56448L4.03587 9.75784C4.18618 10.1996 4.50043 10.5702 4.91771 10.7901L5.05052 10.8477C5.20009 10.9014 5.40751 10.9429 5.72533 10.9678C6.15231 11.0012 6.70771 11.002 7.49974 11.002C7.71076 11.002 7.90952 11.1018 8.0349 11.2715C8.14465 11.4201 8.18683 11.6067 8.15404 11.7862L8.13548 11.8623L7.34447 14.4326C7.01523 15.5033 7.71404 16.6081 8.81126 16.7813L11.5095 12.0606L11.5827 11.9405C11.8445 11.5461 12.2289 11.2561 12.6687 11.1094V5.83304ZM17.3318 8.33304C17.3318 8.97366 17.3364 9.43432 17.2615 9.82327L17.2234 9.98538C16.949 11.0094 16.1821 11.8233 15.1872 12.1621L14.9861 12.2237C14.5624 12.3372 14.0656 12.3321 13.3337 12.3321C13.0915 12.3321 12.8651 12.4453 12.7204 12.6348L12.6638 12.7198L9.74388 17.8301C9.61066 18.0631 9.35005 18.1935 9.08372 18.1602L8.70579 18.1123C6.75379 17.8682 5.49542 15.9213 6.07396 14.041L6.60033 12.3272C6.22861 12.3233 5.90377 12.3161 5.62083 12.294C5.18804 12.26 4.79914 12.1931 4.44701 12.0391L4.29857 11.9668C3.52688 11.5605 2.95919 10.8555 2.72533 10.0205L2.68333 9.85257C2.58769 9.42154 2.62379 8.97768 2.71654 8.49026C2.80865 8.00634 2.97082 7.41139 3.17357 6.668L3.55443 5.27249L3.74583 4.58011C3.9286 3.94171 4.10186 3.45682 4.40404 3.06546L4.53685 2.9053C4.85609 2.54372 5.25433 2.25896 5.70189 2.07425L5.93626 1.99222C6.49455 1.82612 7.15095 1.83499 8.0554 1.83499H12.6667C13.3558 1.83499 13.9128 1.83434 14.363 1.87112C14.8208 1.90854 15.2266 1.98789 15.6033 2.17972L15.821 2.30179C16.317 2.6059 16.7215 3.04226 16.987 3.56351L17.0535 3.70608C17.1977 4.04236 17.2629 4.40311 17.2956 4.80374C17.3324 5.25398 17.3318 5.81094 17.3318 6.50003V8.33304ZM13.9978 10.9961C14.3321 10.9901 14.5013 10.977 14.6413 10.9395L14.7585 10.9033C15.3353 10.7069 15.7801 10.2353 15.9392 9.64163L15.9724 9.46292C15.998 9.25682 16.0017 8.94657 16.0017 8.33304V6.50003C16.0017 5.78899 16.0008 5.29566 15.9695 4.91214C15.9464 4.6301 15.9086 4.44069 15.8572 4.2969L15.8015 4.16702C15.6475 3.86478 15.4133 3.6119 15.1257 3.43558L14.9997 3.36526C14.8418 3.28477 14.6302 3.228 14.2546 3.19729C14.0221 3.1783 13.7491 3.17109 13.4118 3.168C13.6267 3.47028 13.7914 3.81126 13.8904 4.18069L13.9275 4.34378C13.981 4.62163 13.9947 4.93582 13.9978 5.3262V10.9961Z"></path></svg>