<svg width="20" height="20" viewBox="0 0 20 20" fill="currentColor"
    xmlns="http://www.w3.org/2000/svg" class="icon">
    <path xmlns="http://www.w3.org/2000/svg"
        d="M9.509 17.749a.835.835 0 0 1-.883.395c-1.593-.313-2.561-1.912-2.083-3.438l.707-2.384H5.922c-2.19 0-3.779-2.048-3.203-4.125l1.132-3.96C4.245 2.816 5.556 1.83 7.053 1.83h4.978c.915.002 1.656.732 1.656 1.633v8.859h-.616c-.298 0-.573.28-.72.534zM15.013 12.322c1.374 0 2.322-1.14 2.322-2.492V4.237c0-1.353-.948-2.407-2.323-2.407h-.444c.283.48.444 1.038.444 1.633z" />
</svg>