<svg width="20" height="20" viewBox="0 0 20 20" fill="currentColor"
    xmlns="http://www.w3.org/2000/svg" class="icon" aria-label="">
    <path xmlns="http://www.w3.org/2000/svg"
        d="M10.63 1.335c1.403 0 2.64.925 3.036 2.271l.215.729H17l.134.014a.665.665 0 0 1 0 1.302L17 5.665h-.346l-.797 9.326a3.165 3.165 0 0 1-3.153 2.897H7.296a3.166 3.166 0 0 1-3.113-2.594l-.04-.303-.796-9.326H3a.665.665 0 0 1 0-1.33h3.12l.214-.729.084-.248A3.165 3.165 0 0 1 9.37 1.335zM5.468 14.878l.023.176a1.835 1.835 0 0 0 1.805 1.504h5.408c.953 0 1.747-.73 1.828-1.68l.787-9.213H4.682zm2.2-2.05V8.66a.665.665 0 0 1 1.33 0v4.167a.665.665 0 0 1-1.33 0m3.334 0V8.66a.665.665 0 1 1 1.33 0v4.167a.665.665 0 0 1-1.33 0M9.37 2.664c-.763 0-1.44.47-1.712 1.173l-.049.143-.103.354h4.988l-.103-.354a1.835 1.835 0 0 0-1.761-1.316z" />
</svg>