<svg width="20" height="20" viewBox="0 0 20 20" fill="currentColor"
    xmlns="http://www.w3.org/2000/svg" aria-hidden="true" class="icon">
    <path
        d="M3.502 16.666v-3.333c0-.367.298-.665.665-.665H7.5l.134.014a.665.665 0 0 1 0 1.303l-.134.013H5.475A6.12 6.12 0 0 0 10 16.001c3.06 0 5.586-2.29 5.955-5.25l.03-.131a.665.665 0 0 1 1.29.295l-.05.337A7.33 7.33 0 0 1 10 17.332a7.46 7.46 0 0 1-5.168-2.085v1.42a.665.665 0 0 1-1.33 0m.543-7.417a.665.665 0 0 1-1.32-.165zM10 2.67c1.994 0 3.837.797 5.178 2.093V3.333a.665.665 0 0 1 1.33 0v3.333a.665.665 0 0 1-.665.665H12.51a.665.665 0 0 1 0-1.33h2.015A6.12 6.12 0 0 0 10 3.998 6.003 6.003 0 0 0 4.045 9.25l-.66-.083-.66-.082A7.333 7.333 0 0 1 10 2.668"></path>
</svg>