<svg viewBox="0 0 20 20" height="20" width="20" xmlns="http://www.w3.org/2000/svg">
  <path fill="currentColor" d="m2.56 13.74.81-6.47c.21-1.68 1.31-2.61 3.12-2.61h.25v-.24c0-1.87 1.35-3.16 3.24-3.16s3.24 1.3 3.24 3.16v.24h.25c1.82 0 2.91.93 3.12 2.61l.39 3.12c-.42-.51-.93-.94-1.5-1.25l-.21-1.62c-.13-.99-.74-1.5-1.81-1.5h-.25v.98c0 .38-.3.67-.67.67s-.68-.29-.68-.67v-.98h-3.77v.98c0 .38-.3.67-.68.67s-.67-.29-.67-.67v-.98h-.25c-1.06 0-1.68.52-1.81 1.5l-.8 6.48c-.22 1.8.51 2.77 2.09 2.77h3.24c.46.57 1.04 1.03 1.71 1.35h-4.95c-2.57 0-3.77-1.55-3.42-4.38zm9.32-9.08v-.24c0-1.06-.76-1.82-1.88-1.82s-1.88.75-1.88 1.82v.24h3.77zm-2.72 8.92c0-2.19 1.77-3.96 3.96-3.96s3.96 1.78 3.96 3.96c0 .84-.27 1.64-.72 2.28l1.7 1.68c.25.25.24.71 0 .98-.26.25-.72.25-.98 0l-1.67-1.7c-.66.47-1.44.73-2.28.73-2.2 0-3.96-1.78-3.96-3.96zm6.57 0c0-1.44-1.17-2.61-2.61-2.61s-2.62 1.17-2.62 2.61 1.17 2.62 2.62 2.62 2.61-1.18 2.61-2.62z"></path>
</svg>