<svg width="20" height="20" viewBox="0 0 20 20" fill="currentColor" xmlns="http://www.w3.org/2000/svg" class="h-5 w-5"><path fill-rule="evenodd" clip-rule="evenodd" d="M7.91667 3.33331C8.60702 3.33331 9.16667 3.89296 9.16667 4.58331V15.4166C9.16667 16.107 8.60702 16.6666 7.91667 16.6666C7.22631 16.6666 6.66667 16.107 6.66667 15.4166V4.58331C6.66667 3.89296 7.22631 3.33331 7.91667 3.33331ZM12.0833 5.83331C12.7737 5.83331 13.3333 6.39296 13.3333 7.08331V12.9166C13.3333 13.607 12.7737 14.1666 12.0833 14.1666C11.393 14.1666 10.8333 13.607 10.8333 12.9166V7.08331C10.8333 6.39296 11.393 5.83331 12.0833 5.83331ZM3.75 7.49998C4.44036 7.49998 5 8.05962 5 8.74998V11.25C5 11.9403 4.44036 12.5 3.75 12.5C3.05964 12.5 2.5 11.9403 2.5 11.25V8.74998C2.5 8.05962 3.05964 7.49998 3.75 7.49998ZM16.25 7.49998C16.9404 7.49998 17.5 8.05962 17.5 8.74998V11.25C17.5 11.9403 16.9404 12.5 16.25 12.5C15.5596 12.5 15 11.9403 15 11.25V8.74998C15 8.05962 15.5596 7.49998 16.25 7.49998Z"></path></svg>