<svg width="20" height="20" viewBox="0 0 20 20" fill="currentColor"
    xmlns="http://www.w3.org/2000/svg" class="icon">
    <path xmlns="http://www.w3.org/2000/svg"
        d="M10.493 2.241a.835.835 0 0 1 .884-.395c1.592.313 2.56 1.912 2.082 3.439l-.707 2.383h1.329c2.188 0 3.778 2.048 3.202 4.125l-1.132 3.96c-.393 1.421-1.705 2.407-3.202 2.407H7.972c-.916-.002-1.657-.732-1.657-1.633V7.668h.616c.298 0 .573-.28.72-.534zM4.99 7.668c-1.375 0-2.323 1.14-2.323 2.492v5.593c0 1.353.948 2.407 2.323 2.407h.444a3.2 3.2 0 0 1-.444-1.633z" />
</svg>